<?xml version="1.0" standalone="no"?>
<svg version="1.0" xmlns="http://www.w3.org/2000/svg"
 width="500.000000pt" height="500.000000pt" viewBox="0 0 500.000000 500.000000"
 preserveAspectRatio="xMidYMid meet">
<metadata>
Created by potrace 1.16, written by Peter Selinger 2001-2019
</metadata>
<g transform="translate(0.000000,500.000000) scale(0.083333,-0.083333)"
fill="#000000" stroke="none">
<path d="M724 5282 c8 -15 176 -318 373 -672 198 -355 534 -959 747 -1342 214
-384 391 -698 395 -698 3 0 132 225 285 501 l279 501 -16 31 c-8 18 -224 408
-480 867 l-465 835 -566 3 -567 2 15 -28z"/>
<path d="M2247 5222 c26 -48 102 -185 168 -305 l120 -216 626 -3 626 -3 -287
-515 c-157 -283 -456 -820 -663 -1192 -207 -372 -377 -679 -377 -682 0 -3 247
-6 549 -6 l549 0 288 518 c158 284 369 663 469 842 400 717 910 1634 913 1642
2 4 -679 8 -1513 8 l-1516 0 48 -88z"/>
<path d="M745 1588 c30 -57 96 -184 149 -283 l94 -180 114 0 113 0 55 105 c31
58 97 185 148 283 l93 177 -115 0 -115 0 -87 -170 c-48 -93 -90 -170 -94 -170
-3 0 -44 77 -90 170 l-85 170 -117 0 -117 0 54 -102z"/>
<path d="M1540 1405 l0 -285 378 2 377 3 0 280 0 280 -377 3 -378 2 0 -285z
m540 0 l0 -115 -165 0 -165 0 0 115 0 115 165 0 165 0 0 -115z"/>
<path d="M2342 1408 l3 -283 374 -3 c269 -2 377 1 382 9 3 6 5 25 4 43 -2 17
-3 140 -4 274 l-1 242 -105 0 -105 0 0 -200 0 -200 -165 0 -165 0 0 200 0 200
-110 0 -110 0 2 -282z"/>
<path d="M3155 1677 c-3 -7 -4 -134 -3 -282 l3 -270 355 0 355 0 0 175 0 175
-100 0 -100 0 -3 -92 -3 -93 -154 0 -155 0 0 115 0 115 260 0 261 0 -3 83 -3
82 -353 3 c-279 2 -354 0 -357 -11z"/>
<path d="M3910 1405 l0 -285 115 0 115 0 0 285 0 285 -115 0 -115 0 0 -285z"/>
<path d="M4398 1593 l-3 -98 -120 -5 -120 -5 0 -80 0 -80 120 -5 120 -5 3 -97
3 -98 109 0 110 0 0 285 0 285 -110 0 -109 0 -3 -97z"/>
<path d="M4670 1610 l0 -80 105 0 105 0 0 -205 0 -205 105 0 105 0 0 205 0
205 105 0 105 0 0 80 0 80 -315 0 -315 0 0 -80z"/>
<path d="M1450 800 l0 -90 35 0 35 0 0 53 0 52 48 -52 c44 -49 63 -58 110 -54
8 1 12 26 12 92 l0 90 -32 -3 c-32 -3 -33 -5 -36 -50 l-3 -46 -46 49 c-39 42
-51 49 -84 49 l-39 0 0 -90z"/>
<path d="M1740 870 c0 -16 6 -20 35 -20 38 0 37 2 35 -82 l-1 -58 40 0 41 0 0
69 0 70 38 3 c25 2 37 8 37 18 0 12 -20 16 -112 18 -108 3 -113 2 -113 -18z"/>
<path d="M2020 801 c0 -49 4 -91 10 -93 5 -2 49 -1 97 2 98 6 116 23 28 28
-46 3 -55 6 -55 22 0 15 9 19 43 22 29 2 42 8 42 18 0 10 -13 16 -42 18 -29 2
-43 8 -43 18 0 10 14 14 55 14 48 0 55 2 55 20 0 19 -7 20 -95 20 l-95 0 0
-89z"/>
<path d="M2278 884 c-9 -8 -11 -168 -3 -175 2 -3 20 -3 40 -1 31 4 35 7 35 33
0 39 29 39 55 -1 16 -24 27 -30 58 -30 42 0 46 9 17 35 -24 21 -26 43 -5 51
20 8 19 58 -1 75 -18 14 -184 26 -196 13z"/>
<path d="M2567 883 c-4 -3 -7 -44 -7 -90 l0 -83 35 0 35 0 0 53 1 52 48 -52
c41 -46 53 -53 84 -53 l37 0 0 90 0 90 -30 0 c-29 0 -30 -1 -30 -52 l-1 -53
-47 53 c-40 44 -52 52 -83 52 -20 0 -39 -3 -42 -7z"/>
<path d="M2943 878 c-20 -27 -92 -166 -88 -170 3 -3 18 -3 33 0 23 3 35 16 61
63 18 32 34 59 37 59 2 0 17 -26 32 -57 26 -54 30 -58 66 -61 l38 -3 -48 90
c-48 89 -50 91 -85 91 -20 0 -41 -6 -46 -12z"/>
<path d="M3160 870 c0 -16 7 -20 35 -20 l35 0 0 -69 c0 -74 6 -82 58 -73 20 4
22 10 22 73 l0 69 35 0 c28 0 35 4 35 20 0 19 -7 20 -110 20 -103 0 -110 -1
-110 -20z"/>
<path d="M3645 875 c-49 -18 -65 -38 -65 -82 0 -65 69 -103 162 -90 23 3 53
14 67 25 22 16 26 27 26 67 0 39 -4 51 -25 67 -34 25 -115 32 -165 13z"/>
<path d="M3907 883 c-4 -3 -7 -44 -7 -90 l0 -83 35 0 35 0 0 53 1 52 47 -53
c41 -45 52 -52 85 -52 l37 0 0 90 0 90 -30 0 c-29 0 -30 -2 -30 -45 0 -25 -4
-45 -10 -45 -5 0 -26 20 -47 45 -31 38 -43 45 -73 45 -20 0 -40 -3 -43 -7z"/>
<path d="M4246 805 c-25 -47 -46 -87 -46 -89 0 -7 38 -13 47 -7 5 3 24 32 42
64 37 65 37 65 72 -15 20 -45 24 -48 60 -48 22 0 39 3 39 6 0 3 -21 44 -46 90
-45 83 -46 84 -84 84 -38 0 -39 -1 -84 -85z"/>
<path d="M4514 877 c-3 -8 -4 -49 -2 -91 l3 -78 90 0 c74 0 91 3 93 16 3 13
-7 16 -52 16 l-56 0 0 75 0 75 -35 0 c-21 0 -38 -6 -41 -13z"/>
</g>
</svg>
